<?xml version="1.0" encoding="UTF-8"?>
<!DOCTYPE svg PUBLIC "-//W3C//DTD SVG 1.1//EN" "http://www.w3.org/Graphics/SVG/1.1/DTD/svg11.dtd">
<svg version="1.1" xmlns="http://www.w3.org/2000/svg" xmlns:xlink="http://www.w3.org/1999/xlink" x="0" y="0" width="72" height="72" viewBox="0, 0, 72, 72">
  <g id="Layer_1">
    <path d="M48,0 L48,72 L24,72 L24,0 L48,0 z" fill="#00FF64" display="none"/>
    <path d="M0,24 L24,24 L24,48 L0,48 L0,24 z" fill="#03FF64"/>
    <path d="M24,24 L48,24 L48,48 L24,48 L24,24 z" fill="#03FF64"/>
    <path d="M24,48 L48,48 L48,72 L24,72 L24,48 z" fill="#03FF64" display="none"/>
    <path d="M24,0 L48,0 L48,24 L24,24 L24,0 z" fill="#03FF64"/>
    <path d="M48,24 L72,24 L72,48 L48,48 L48,24 z" fill="#03FF64" display="none"/>
  </g>
</svg>
